<mxfile host="app.diagrams.net" modified="2023-10-17T15:46:32.123Z" agent="Mozilla/5.0 (Windows NT 10.0; Win64; x64) AppleWebKit/537.36 (KHTML, like Gecko) Chrome/117.0.0.0 Safari/537.36 Edg/117.0.2045.47" etag="CHzB_QIl1hSpIwk3RR_u" version="22.0.4" type="github" pages="2">
  <diagram id="C5RBs43oDa-KdzZeNtuy" name="Page-1">
    <mxGraphModel dx="2015" dy="623" grid="1" gridSize="10" guides="1" tooltips="1" connect="1" arrows="1" fold="1" page="1" pageScale="1" pageWidth="827" pageHeight="1169" background="#fffafa" math="0" shadow="0">
      <root>
        <mxCell id="WIyWlLk6GJQsqaUBKTNV-0" />
        <mxCell id="WIyWlLk6GJQsqaUBKTNV-1" parent="WIyWlLk6GJQsqaUBKTNV-0" />
        <mxCell id="NkmIDCvSrwUxlRw-OVxv-3" style="edgeStyle=orthogonalEdgeStyle;rounded=0;orthogonalLoop=1;jettySize=auto;html=1;exitX=0.5;exitY=1;exitDx=0;exitDy=0;entryX=0.5;entryY=0;entryDx=0;entryDy=0;" edge="1" parent="WIyWlLk6GJQsqaUBKTNV-1" source="NkmIDCvSrwUxlRw-OVxv-0" target="NkmIDCvSrwUxlRw-OVxv-2">
          <mxGeometry relative="1" as="geometry" />
        </mxCell>
        <mxCell id="NkmIDCvSrwUxlRw-OVxv-0" value="Start" style="rounded=1;whiteSpace=wrap;html=1;" vertex="1" parent="WIyWlLk6GJQsqaUBKTNV-1">
          <mxGeometry x="140" y="20" width="120" height="60" as="geometry" />
        </mxCell>
        <mxCell id="NkmIDCvSrwUxlRw-OVxv-5" style="edgeStyle=orthogonalEdgeStyle;rounded=0;orthogonalLoop=1;jettySize=auto;html=1;exitX=0.5;exitY=1;exitDx=0;exitDy=0;entryX=0.5;entryY=0;entryDx=0;entryDy=0;" edge="1" parent="WIyWlLk6GJQsqaUBKTNV-1" source="NkmIDCvSrwUxlRw-OVxv-2" target="NkmIDCvSrwUxlRw-OVxv-4">
          <mxGeometry relative="1" as="geometry" />
        </mxCell>
        <mxCell id="NkmIDCvSrwUxlRw-OVxv-2" value="first question" style="shape=parallelogram;perimeter=parallelogramPerimeter;whiteSpace=wrap;html=1;fixedSize=1;" vertex="1" parent="WIyWlLk6GJQsqaUBKTNV-1">
          <mxGeometry x="140" y="130" width="120" height="60" as="geometry" />
        </mxCell>
        <mxCell id="NkmIDCvSrwUxlRw-OVxv-9" style="edgeStyle=orthogonalEdgeStyle;rounded=0;orthogonalLoop=1;jettySize=auto;html=1;exitX=0;exitY=0.5;exitDx=0;exitDy=0;entryX=1;entryY=0.5;entryDx=0;entryDy=0;" edge="1" parent="WIyWlLk6GJQsqaUBKTNV-1" source="NkmIDCvSrwUxlRw-OVxv-4" target="NkmIDCvSrwUxlRw-OVxv-6">
          <mxGeometry relative="1" as="geometry" />
        </mxCell>
        <mxCell id="NkmIDCvSrwUxlRw-OVxv-4" value="is answer correct?" style="rhombus;whiteSpace=wrap;html=1;" vertex="1" parent="WIyWlLk6GJQsqaUBKTNV-1">
          <mxGeometry x="160" y="250" width="80" height="80" as="geometry" />
        </mxCell>
        <mxCell id="NkmIDCvSrwUxlRw-OVxv-11" style="edgeStyle=orthogonalEdgeStyle;rounded=0;orthogonalLoop=1;jettySize=auto;html=1;exitX=0.5;exitY=1;exitDx=0;exitDy=0;entryX=0;entryY=0.5;entryDx=0;entryDy=0;" edge="1" parent="WIyWlLk6GJQsqaUBKTNV-1" source="NkmIDCvSrwUxlRw-OVxv-6" target="NkmIDCvSrwUxlRw-OVxv-10">
          <mxGeometry relative="1" as="geometry" />
        </mxCell>
        <mxCell id="NkmIDCvSrwUxlRw-OVxv-6" value="no the user loses&amp;nbsp;&lt;br&gt;a life" style="shape=parallelogram;perimeter=parallelogramPerimeter;whiteSpace=wrap;html=1;fixedSize=1;" vertex="1" parent="WIyWlLk6GJQsqaUBKTNV-1">
          <mxGeometry x="-30" y="260" width="120" height="60" as="geometry" />
        </mxCell>
        <mxCell id="NkmIDCvSrwUxlRw-OVxv-12" style="edgeStyle=orthogonalEdgeStyle;rounded=0;orthogonalLoop=1;jettySize=auto;html=1;exitX=0.5;exitY=1;exitDx=0;exitDy=0;entryX=0.842;entryY=0.017;entryDx=0;entryDy=0;entryPerimeter=0;" edge="1" parent="WIyWlLk6GJQsqaUBKTNV-1" source="NkmIDCvSrwUxlRw-OVxv-7" target="NkmIDCvSrwUxlRw-OVxv-10">
          <mxGeometry relative="1" as="geometry">
            <mxPoint x="240" y="460" as="targetPoint" />
          </mxGeometry>
        </mxCell>
        <mxCell id="NkmIDCvSrwUxlRw-OVxv-7" value="yes tell user&amp;nbsp;&lt;br&gt;they&#39;re&lt;br&gt;correct" style="shape=parallelogram;perimeter=parallelogramPerimeter;whiteSpace=wrap;html=1;fixedSize=1;" vertex="1" parent="WIyWlLk6GJQsqaUBKTNV-1">
          <mxGeometry x="310" y="260" width="120" height="60" as="geometry" />
        </mxCell>
        <mxCell id="NkmIDCvSrwUxlRw-OVxv-8" style="edgeStyle=orthogonalEdgeStyle;rounded=0;orthogonalLoop=1;jettySize=auto;html=1;exitX=1;exitY=0.5;exitDx=0;exitDy=0;entryX=0.033;entryY=0.5;entryDx=0;entryDy=0;entryPerimeter=0;" edge="1" parent="WIyWlLk6GJQsqaUBKTNV-1" source="NkmIDCvSrwUxlRw-OVxv-4" target="NkmIDCvSrwUxlRw-OVxv-7">
          <mxGeometry relative="1" as="geometry" />
        </mxCell>
        <mxCell id="NkmIDCvSrwUxlRw-OVxv-14" style="edgeStyle=orthogonalEdgeStyle;rounded=0;orthogonalLoop=1;jettySize=auto;html=1;exitX=0.5;exitY=1;exitDx=0;exitDy=0;entryX=0.5;entryY=0;entryDx=0;entryDy=0;" edge="1" parent="WIyWlLk6GJQsqaUBKTNV-1" source="NkmIDCvSrwUxlRw-OVxv-10" target="NkmIDCvSrwUxlRw-OVxv-13">
          <mxGeometry relative="1" as="geometry" />
        </mxCell>
        <mxCell id="NkmIDCvSrwUxlRw-OVxv-10" value="second question" style="shape=parallelogram;perimeter=parallelogramPerimeter;whiteSpace=wrap;html=1;fixedSize=1;" vertex="1" parent="WIyWlLk6GJQsqaUBKTNV-1">
          <mxGeometry x="140" y="380" width="120" height="60" as="geometry" />
        </mxCell>
        <mxCell id="NkmIDCvSrwUxlRw-OVxv-16" style="edgeStyle=orthogonalEdgeStyle;rounded=0;orthogonalLoop=1;jettySize=auto;html=1;exitX=1;exitY=0.5;exitDx=0;exitDy=0;entryX=0;entryY=0.5;entryDx=0;entryDy=0;" edge="1" parent="WIyWlLk6GJQsqaUBKTNV-1" source="NkmIDCvSrwUxlRw-OVxv-13" target="NkmIDCvSrwUxlRw-OVxv-15">
          <mxGeometry relative="1" as="geometry" />
        </mxCell>
        <mxCell id="NkmIDCvSrwUxlRw-OVxv-18" style="edgeStyle=orthogonalEdgeStyle;rounded=0;orthogonalLoop=1;jettySize=auto;html=1;exitX=0;exitY=0.5;exitDx=0;exitDy=0;entryX=1;entryY=0.5;entryDx=0;entryDy=0;" edge="1" parent="WIyWlLk6GJQsqaUBKTNV-1" source="NkmIDCvSrwUxlRw-OVxv-13" target="NkmIDCvSrwUxlRw-OVxv-17">
          <mxGeometry relative="1" as="geometry" />
        </mxCell>
        <mxCell id="NkmIDCvSrwUxlRw-OVxv-13" value="is answer&lt;br&gt;correct?" style="rhombus;whiteSpace=wrap;html=1;" vertex="1" parent="WIyWlLk6GJQsqaUBKTNV-1">
          <mxGeometry x="160" y="500" width="80" height="80" as="geometry" />
        </mxCell>
        <mxCell id="NkmIDCvSrwUxlRw-OVxv-23" style="edgeStyle=orthogonalEdgeStyle;rounded=0;orthogonalLoop=1;jettySize=auto;html=1;exitX=0.5;exitY=1;exitDx=0;exitDy=0;entryX=0.75;entryY=0;entryDx=0;entryDy=0;" edge="1" parent="WIyWlLk6GJQsqaUBKTNV-1" source="NkmIDCvSrwUxlRw-OVxv-15" target="NkmIDCvSrwUxlRw-OVxv-19">
          <mxGeometry relative="1" as="geometry" />
        </mxCell>
        <mxCell id="NkmIDCvSrwUxlRw-OVxv-15" value="yes tell user&amp;nbsp;&lt;br&gt;they&#39;re correct" style="shape=parallelogram;perimeter=parallelogramPerimeter;whiteSpace=wrap;html=1;fixedSize=1;" vertex="1" parent="WIyWlLk6GJQsqaUBKTNV-1">
          <mxGeometry x="280" y="510" width="120" height="60" as="geometry" />
        </mxCell>
        <mxCell id="NkmIDCvSrwUxlRw-OVxv-17" value="no, the user&lt;br&gt;loses a life" style="shape=parallelogram;perimeter=parallelogramPerimeter;whiteSpace=wrap;html=1;fixedSize=1;" vertex="1" parent="WIyWlLk6GJQsqaUBKTNV-1">
          <mxGeometry y="510" width="120" height="60" as="geometry" />
        </mxCell>
        <mxCell id="NkmIDCvSrwUxlRw-OVxv-24" style="edgeStyle=orthogonalEdgeStyle;rounded=0;orthogonalLoop=1;jettySize=auto;html=1;exitX=0.5;exitY=1;exitDx=0;exitDy=0;entryX=0.5;entryY=0;entryDx=0;entryDy=0;" edge="1" parent="WIyWlLk6GJQsqaUBKTNV-1" source="NkmIDCvSrwUxlRw-OVxv-19" target="NkmIDCvSrwUxlRw-OVxv-21">
          <mxGeometry relative="1" as="geometry" />
        </mxCell>
        <mxCell id="NkmIDCvSrwUxlRw-OVxv-19" value="third question" style="shape=parallelogram;perimeter=parallelogramPerimeter;whiteSpace=wrap;html=1;fixedSize=1;" vertex="1" parent="WIyWlLk6GJQsqaUBKTNV-1">
          <mxGeometry x="140" y="610" width="120" height="60" as="geometry" />
        </mxCell>
        <mxCell id="NkmIDCvSrwUxlRw-OVxv-28" style="edgeStyle=orthogonalEdgeStyle;rounded=0;orthogonalLoop=1;jettySize=auto;html=1;exitX=1;exitY=0.5;exitDx=0;exitDy=0;" edge="1" parent="WIyWlLk6GJQsqaUBKTNV-1" source="NkmIDCvSrwUxlRw-OVxv-21" target="NkmIDCvSrwUxlRw-OVxv-25">
          <mxGeometry relative="1" as="geometry" />
        </mxCell>
        <mxCell id="NkmIDCvSrwUxlRw-OVxv-29" style="edgeStyle=orthogonalEdgeStyle;rounded=0;orthogonalLoop=1;jettySize=auto;html=1;exitX=0;exitY=0.5;exitDx=0;exitDy=0;entryX=1;entryY=0.5;entryDx=0;entryDy=0;" edge="1" parent="WIyWlLk6GJQsqaUBKTNV-1" source="NkmIDCvSrwUxlRw-OVxv-21" target="NkmIDCvSrwUxlRw-OVxv-27">
          <mxGeometry relative="1" as="geometry" />
        </mxCell>
        <mxCell id="NkmIDCvSrwUxlRw-OVxv-21" value="is answer&lt;br&gt;correct?" style="rhombus;whiteSpace=wrap;html=1;" vertex="1" parent="WIyWlLk6GJQsqaUBKTNV-1">
          <mxGeometry x="160" y="720" width="80" height="80" as="geometry" />
        </mxCell>
        <mxCell id="NkmIDCvSrwUxlRw-OVxv-22" style="edgeStyle=orthogonalEdgeStyle;rounded=0;orthogonalLoop=1;jettySize=auto;html=1;exitX=0.5;exitY=1;exitDx=0;exitDy=0;entryX=0.164;entryY=-0.039;entryDx=0;entryDy=0;entryPerimeter=0;" edge="1" parent="WIyWlLk6GJQsqaUBKTNV-1" source="NkmIDCvSrwUxlRw-OVxv-17" target="NkmIDCvSrwUxlRw-OVxv-19">
          <mxGeometry relative="1" as="geometry" />
        </mxCell>
        <mxCell id="NkmIDCvSrwUxlRw-OVxv-25" value="yes, tell the user&amp;nbsp;&lt;br&gt;they&#39;re correct" style="shape=parallelogram;perimeter=parallelogramPerimeter;whiteSpace=wrap;html=1;fixedSize=1;" vertex="1" parent="WIyWlLk6GJQsqaUBKTNV-1">
          <mxGeometry x="294" y="730" width="120" height="60" as="geometry" />
        </mxCell>
        <mxCell id="NkmIDCvSrwUxlRw-OVxv-27" value="no, the user loses&lt;br&gt;a life" style="shape=parallelogram;perimeter=parallelogramPerimeter;whiteSpace=wrap;html=1;fixedSize=1;" vertex="1" parent="WIyWlLk6GJQsqaUBKTNV-1">
          <mxGeometry y="730" width="120" height="60" as="geometry" />
        </mxCell>
        <mxCell id="JKIjhTeIiqGl-qEiysz5-4" style="edgeStyle=orthogonalEdgeStyle;rounded=0;orthogonalLoop=1;jettySize=auto;html=1;exitX=0.5;exitY=1;exitDx=0;exitDy=0;entryX=0.5;entryY=0;entryDx=0;entryDy=0;" edge="1" parent="WIyWlLk6GJQsqaUBKTNV-1" source="JKIjhTeIiqGl-qEiysz5-0" target="JKIjhTeIiqGl-qEiysz5-3">
          <mxGeometry relative="1" as="geometry" />
        </mxCell>
        <mxCell id="JKIjhTeIiqGl-qEiysz5-0" value="fourth question" style="shape=parallelogram;perimeter=parallelogramPerimeter;whiteSpace=wrap;html=1;fixedSize=1;" vertex="1" parent="WIyWlLk6GJQsqaUBKTNV-1">
          <mxGeometry x="140" y="840" width="120" height="60" as="geometry" />
        </mxCell>
        <mxCell id="JKIjhTeIiqGl-qEiysz5-1" style="edgeStyle=orthogonalEdgeStyle;rounded=0;orthogonalLoop=1;jettySize=auto;html=1;exitX=0.5;exitY=1;exitDx=0;exitDy=0;entryX=0.928;entryY=0.01;entryDx=0;entryDy=0;entryPerimeter=0;" edge="1" parent="WIyWlLk6GJQsqaUBKTNV-1" source="NkmIDCvSrwUxlRw-OVxv-25" target="JKIjhTeIiqGl-qEiysz5-0">
          <mxGeometry relative="1" as="geometry" />
        </mxCell>
        <mxCell id="JKIjhTeIiqGl-qEiysz5-2" style="edgeStyle=orthogonalEdgeStyle;rounded=0;orthogonalLoop=1;jettySize=auto;html=1;exitX=0.5;exitY=1;exitDx=0;exitDy=0;entryX=0.35;entryY=-0.01;entryDx=0;entryDy=0;entryPerimeter=0;" edge="1" parent="WIyWlLk6GJQsqaUBKTNV-1" source="NkmIDCvSrwUxlRw-OVxv-27" target="JKIjhTeIiqGl-qEiysz5-0">
          <mxGeometry relative="1" as="geometry" />
        </mxCell>
        <mxCell id="JKIjhTeIiqGl-qEiysz5-7" style="edgeStyle=orthogonalEdgeStyle;rounded=0;orthogonalLoop=1;jettySize=auto;html=1;exitX=0;exitY=0.5;exitDx=0;exitDy=0;" edge="1" parent="WIyWlLk6GJQsqaUBKTNV-1" source="JKIjhTeIiqGl-qEiysz5-3" target="JKIjhTeIiqGl-qEiysz5-5">
          <mxGeometry relative="1" as="geometry" />
        </mxCell>
        <mxCell id="JKIjhTeIiqGl-qEiysz5-10" style="edgeStyle=orthogonalEdgeStyle;rounded=0;orthogonalLoop=1;jettySize=auto;html=1;exitX=1;exitY=0.5;exitDx=0;exitDy=0;entryX=0;entryY=0.5;entryDx=0;entryDy=0;" edge="1" parent="WIyWlLk6GJQsqaUBKTNV-1" source="JKIjhTeIiqGl-qEiysz5-3" target="JKIjhTeIiqGl-qEiysz5-9">
          <mxGeometry relative="1" as="geometry" />
        </mxCell>
        <mxCell id="JKIjhTeIiqGl-qEiysz5-3" value="is answer&amp;nbsp;&lt;br&gt;correct?" style="rhombus;whiteSpace=wrap;html=1;" vertex="1" parent="WIyWlLk6GJQsqaUBKTNV-1">
          <mxGeometry x="160" y="960" width="80" height="80" as="geometry" />
        </mxCell>
        <mxCell id="JKIjhTeIiqGl-qEiysz5-5" value="no, the user&amp;nbsp;&lt;br&gt;loses a life" style="shape=parallelogram;perimeter=parallelogramPerimeter;whiteSpace=wrap;html=1;fixedSize=1;" vertex="1" parent="WIyWlLk6GJQsqaUBKTNV-1">
          <mxGeometry y="970" width="120" height="60" as="geometry" />
        </mxCell>
        <mxCell id="JKIjhTeIiqGl-qEiysz5-9" value="yes, tell the user&lt;br&gt;they&#39;re correct" style="shape=parallelogram;perimeter=parallelogramPerimeter;whiteSpace=wrap;html=1;fixedSize=1;" vertex="1" parent="WIyWlLk6GJQsqaUBKTNV-1">
          <mxGeometry x="300" y="970" width="120" height="60" as="geometry" />
        </mxCell>
      </root>
    </mxGraphModel>
  </diagram>
  <diagram id="yHJcxLEuS3GZXtJyYjwe" name="Page-2">
    <mxGraphModel dx="1426" dy="748" grid="1" gridSize="10" guides="1" tooltips="1" connect="1" arrows="1" fold="1" page="1" pageScale="1" pageWidth="827" pageHeight="1169" math="0" shadow="0">
      <root>
        <mxCell id="0" />
        <mxCell id="1" parent="0" />
        <mxCell id="QXpMCVTzxK3PciKYBZ0E-2" style="edgeStyle=orthogonalEdgeStyle;rounded=0;orthogonalLoop=1;jettySize=auto;html=1;exitX=0.5;exitY=1;exitDx=0;exitDy=0;entryX=0.5;entryY=0;entryDx=0;entryDy=0;" edge="1" parent="1" source="gDVUjxFFhu4jj6DHiNso-1" target="QXpMCVTzxK3PciKYBZ0E-1">
          <mxGeometry relative="1" as="geometry" />
        </mxCell>
        <mxCell id="gDVUjxFFhu4jj6DHiNso-1" value="fifth question" style="shape=parallelogram;perimeter=parallelogramPerimeter;whiteSpace=wrap;html=1;fixedSize=1;" vertex="1" parent="1">
          <mxGeometry x="250" y="350" width="120" height="60" as="geometry" />
        </mxCell>
        <mxCell id="QXpMCVTzxK3PciKYBZ0E-4" style="edgeStyle=orthogonalEdgeStyle;rounded=0;orthogonalLoop=1;jettySize=auto;html=1;exitX=1;exitY=0.5;exitDx=0;exitDy=0;entryX=0;entryY=0.5;entryDx=0;entryDy=0;" edge="1" parent="1" source="QXpMCVTzxK3PciKYBZ0E-1" target="QXpMCVTzxK3PciKYBZ0E-3">
          <mxGeometry relative="1" as="geometry" />
        </mxCell>
        <mxCell id="QXpMCVTzxK3PciKYBZ0E-6" style="edgeStyle=orthogonalEdgeStyle;rounded=0;orthogonalLoop=1;jettySize=auto;html=1;exitX=0;exitY=0.5;exitDx=0;exitDy=0;" edge="1" parent="1" source="QXpMCVTzxK3PciKYBZ0E-1" target="QXpMCVTzxK3PciKYBZ0E-5">
          <mxGeometry relative="1" as="geometry" />
        </mxCell>
        <mxCell id="QXpMCVTzxK3PciKYBZ0E-1" value="is answer&lt;br&gt;correct?" style="rhombus;whiteSpace=wrap;html=1;" vertex="1" parent="1">
          <mxGeometry x="270" y="450" width="80" height="80" as="geometry" />
        </mxCell>
        <mxCell id="QXpMCVTzxK3PciKYBZ0E-9" style="edgeStyle=orthogonalEdgeStyle;rounded=0;orthogonalLoop=1;jettySize=auto;html=1;exitX=0.5;exitY=1;exitDx=0;exitDy=0;entryX=1;entryY=0.5;entryDx=0;entryDy=0;" edge="1" parent="1" source="QXpMCVTzxK3PciKYBZ0E-3" target="QXpMCVTzxK3PciKYBZ0E-7">
          <mxGeometry relative="1" as="geometry" />
        </mxCell>
        <mxCell id="QXpMCVTzxK3PciKYBZ0E-3" value="yes, tell the user they&#39;re correct" style="shape=parallelogram;perimeter=parallelogramPerimeter;whiteSpace=wrap;html=1;fixedSize=1;" vertex="1" parent="1">
          <mxGeometry x="380" y="460" width="120" height="60" as="geometry" />
        </mxCell>
        <mxCell id="QXpMCVTzxK3PciKYBZ0E-8" style="edgeStyle=orthogonalEdgeStyle;rounded=0;orthogonalLoop=1;jettySize=auto;html=1;exitX=0.5;exitY=1;exitDx=0;exitDy=0;entryX=0;entryY=0.25;entryDx=0;entryDy=0;" edge="1" parent="1" source="QXpMCVTzxK3PciKYBZ0E-5" target="QXpMCVTzxK3PciKYBZ0E-7">
          <mxGeometry relative="1" as="geometry" />
        </mxCell>
        <mxCell id="QXpMCVTzxK3PciKYBZ0E-5" value="no, the user loses&lt;br&gt;a life" style="shape=parallelogram;perimeter=parallelogramPerimeter;whiteSpace=wrap;html=1;fixedSize=1;" vertex="1" parent="1">
          <mxGeometry x="120" y="460" width="120" height="60" as="geometry" />
        </mxCell>
        <mxCell id="QXpMCVTzxK3PciKYBZ0E-11" style="edgeStyle=orthogonalEdgeStyle;rounded=0;orthogonalLoop=1;jettySize=auto;html=1;exitX=0.5;exitY=1;exitDx=0;exitDy=0;entryX=0.5;entryY=0;entryDx=0;entryDy=0;" edge="1" parent="1" source="QXpMCVTzxK3PciKYBZ0E-7" target="QXpMCVTzxK3PciKYBZ0E-10">
          <mxGeometry relative="1" as="geometry" />
        </mxCell>
        <mxCell id="QXpMCVTzxK3PciKYBZ0E-7" value="sixth question" style="shape=parallelogram;perimeter=parallelogramPerimeter;whiteSpace=wrap;html=1;fixedSize=1;" vertex="1" parent="1">
          <mxGeometry x="250" y="580" width="120" height="60" as="geometry" />
        </mxCell>
        <mxCell id="QXpMCVTzxK3PciKYBZ0E-13" style="edgeStyle=orthogonalEdgeStyle;rounded=0;orthogonalLoop=1;jettySize=auto;html=1;exitX=1;exitY=0.5;exitDx=0;exitDy=0;entryX=0;entryY=0.5;entryDx=0;entryDy=0;" edge="1" parent="1" source="QXpMCVTzxK3PciKYBZ0E-10" target="QXpMCVTzxK3PciKYBZ0E-12">
          <mxGeometry relative="1" as="geometry" />
        </mxCell>
        <mxCell id="QXpMCVTzxK3PciKYBZ0E-15" style="edgeStyle=orthogonalEdgeStyle;rounded=0;orthogonalLoop=1;jettySize=auto;html=1;exitX=0;exitY=0.5;exitDx=0;exitDy=0;entryX=1;entryY=0.5;entryDx=0;entryDy=0;" edge="1" parent="1" source="QXpMCVTzxK3PciKYBZ0E-10" target="QXpMCVTzxK3PciKYBZ0E-14">
          <mxGeometry relative="1" as="geometry" />
        </mxCell>
        <mxCell id="QXpMCVTzxK3PciKYBZ0E-10" value="is answer&lt;br&gt;correct?" style="rhombus;whiteSpace=wrap;html=1;" vertex="1" parent="1">
          <mxGeometry x="270" y="680" width="80" height="80" as="geometry" />
        </mxCell>
        <mxCell id="Zb7py4T0xDC6kwK6m3X--2" style="edgeStyle=orthogonalEdgeStyle;rounded=0;orthogonalLoop=1;jettySize=auto;html=1;exitX=0.5;exitY=1;exitDx=0;exitDy=0;entryX=1;entryY=0.5;entryDx=0;entryDy=0;" edge="1" parent="1" source="QXpMCVTzxK3PciKYBZ0E-12" target="Qw0fz_dCW8_d1su0JsMq-1">
          <mxGeometry relative="1" as="geometry" />
        </mxCell>
        <mxCell id="QXpMCVTzxK3PciKYBZ0E-12" value="yes, tell user&amp;nbsp;&lt;br&gt;they&#39;re correct" style="shape=parallelogram;perimeter=parallelogramPerimeter;whiteSpace=wrap;html=1;fixedSize=1;" vertex="1" parent="1">
          <mxGeometry x="380" y="690" width="120" height="60" as="geometry" />
        </mxCell>
        <mxCell id="Zb7py4T0xDC6kwK6m3X--3" style="edgeStyle=orthogonalEdgeStyle;rounded=0;orthogonalLoop=1;jettySize=auto;html=1;exitX=0.5;exitY=1;exitDx=0;exitDy=0;entryX=0;entryY=0.5;entryDx=0;entryDy=0;" edge="1" parent="1" source="QXpMCVTzxK3PciKYBZ0E-14" target="Qw0fz_dCW8_d1su0JsMq-1">
          <mxGeometry relative="1" as="geometry" />
        </mxCell>
        <mxCell id="QXpMCVTzxK3PciKYBZ0E-14" value="no, the user&amp;nbsp;&lt;br&gt;loses a life" style="shape=parallelogram;perimeter=parallelogramPerimeter;whiteSpace=wrap;html=1;fixedSize=1;" vertex="1" parent="1">
          <mxGeometry x="110" y="690" width="120" height="60" as="geometry" />
        </mxCell>
        <mxCell id="Zb7py4T0xDC6kwK6m3X--5" style="edgeStyle=orthogonalEdgeStyle;rounded=0;orthogonalLoop=1;jettySize=auto;html=1;exitX=0.5;exitY=1;exitDx=0;exitDy=0;entryX=0.5;entryY=0;entryDx=0;entryDy=0;" edge="1" parent="1" source="Qw0fz_dCW8_d1su0JsMq-1" target="Zb7py4T0xDC6kwK6m3X--4">
          <mxGeometry relative="1" as="geometry" />
        </mxCell>
        <mxCell id="Qw0fz_dCW8_d1su0JsMq-1" value="seventh question" style="shape=parallelogram;perimeter=parallelogramPerimeter;whiteSpace=wrap;html=1;fixedSize=1;" vertex="1" parent="1">
          <mxGeometry x="250" y="800" width="120" height="60" as="geometry" />
        </mxCell>
        <mxCell id="Zb7py4T0xDC6kwK6m3X--9" style="edgeStyle=orthogonalEdgeStyle;rounded=0;orthogonalLoop=1;jettySize=auto;html=1;exitX=0;exitY=0.5;exitDx=0;exitDy=0;entryX=1;entryY=0.5;entryDx=0;entryDy=0;" edge="1" parent="1" source="Zb7py4T0xDC6kwK6m3X--4" target="Zb7py4T0xDC6kwK6m3X--7">
          <mxGeometry relative="1" as="geometry" />
        </mxCell>
        <mxCell id="Zb7py4T0xDC6kwK6m3X--10" style="edgeStyle=orthogonalEdgeStyle;rounded=0;orthogonalLoop=1;jettySize=auto;html=1;exitX=1;exitY=0.5;exitDx=0;exitDy=0;entryX=0;entryY=0.5;entryDx=0;entryDy=0;" edge="1" parent="1" source="Zb7py4T0xDC6kwK6m3X--4" target="Zb7py4T0xDC6kwK6m3X--6">
          <mxGeometry relative="1" as="geometry" />
        </mxCell>
        <mxCell id="Zb7py4T0xDC6kwK6m3X--4" value="is answer&amp;nbsp;&lt;br&gt;correct?" style="rhombus;whiteSpace=wrap;html=1;" vertex="1" parent="1">
          <mxGeometry x="270" y="890" width="80" height="80" as="geometry" />
        </mxCell>
        <mxCell id="Zb7py4T0xDC6kwK6m3X--6" value="yes, tell the user&lt;br&gt;they&#39;re correct" style="shape=parallelogram;perimeter=parallelogramPerimeter;whiteSpace=wrap;html=1;fixedSize=1;" vertex="1" parent="1">
          <mxGeometry x="380" y="900" width="120" height="60" as="geometry" />
        </mxCell>
        <mxCell id="Zb7py4T0xDC6kwK6m3X--7" value="no, the user loses&lt;br&gt;a life" style="shape=parallelogram;perimeter=parallelogramPerimeter;whiteSpace=wrap;html=1;fixedSize=1;" vertex="1" parent="1">
          <mxGeometry x="120" y="900" width="120" height="60" as="geometry" />
        </mxCell>
      </root>
    </mxGraphModel>
  </diagram>
</mxfile>
